<?xml version="1.0" encoding="UTF-8" standalone="no"?>
<!-- Created with Inkscape (http://www.inkscape.org/) -->

<svg
   version="1.1"
   id="svg1"
   width="839.16132"
   height="211.62939"
   viewBox="0 0 839.16132 211.62939"
   xmlns="http://www.w3.org/2000/svg"
   xmlns:svg="http://www.w3.org/2000/svg">
  <defs
     id="defs1" />
  <g
     id="g1"
     transform="translate(-93.838676,-393.93452)">
    <path
       style="fill:#618a2d;fill-opacity:1"
       d="m 135.56818,605.23484 c -0.3125,-0.31249 -0.57507,-2.63067 -0.58349,-5.15151 -0.008,-2.52083 -0.36274,-5.13006 -0.78736,-5.79828 -0.42462,-0.66823 -3.23023,-1.73005 -6.23469,-2.35962 -11.81945,-2.47669 -22.3857,-10.12557 -29.326843,-21.2296 C 96.623485,567.47665 94.272109,556.05617 93.962925,548 c -0.278861,-7.26607 -0.222268,-7.5978 1.608504,-9.42857 1.269836,-1.26984 4.100692,-1.571 14.750001,-1.5692 l 13.17857,0.002 0.10421,5.79101 c 0.26348,14.64161 8.13333,23.1606 21.39579,23.1606 18.19422,0 25.56528,-16.46398 14.85391,-33.17768 -3.45801,-5.39577 -12.7297,-13.93408 -31.25176,-28.77978 -18.16911,-14.56279 -22.69773,-19.36892 -27.63054,-29.32375 -3.620165,-7.3058 -4.245552,-9.54829 -4.686003,-16.80293 C 95.050624,437.53066 102.04523,424.0069 119,413.95465 c 3.575,-2.11957 8.61895,-4.41483 11.20879,-5.10059 l 4.70878,-1.24682 0.29122,-6.55362 L 135.5,394.5 146.75,394.21725 158,393.9345 v 7.41921 7.4192 l 4.31821,0.64756 c 6.75533,1.01302 16.20035,6.00815 21.33554,11.2836 C 190.714,427.95714 195,439.38901 195,450.96743 195,459.28925 195.53899,459 180.0319,459 h -13.75412 l -0.54114,-5.96778 c -1.01554,-11.19949 -5.69494,-16.7605 -16.05415,-19.07879 -14.84339,-3.32181 -26.29553,9.02873 -21.17722,22.83852 2.3528,6.34815 7.90656,11.93663 27.99473,28.16979 21.43158,17.31876 30.69195,26.95124 36.00019,37.44675 l 3.99981,7.90849 -0.0629,14.64311 c -0.0613,14.26079 -0.14484,14.81821 -3.20145,21.35003 -5.59118,11.94807 -17.58454,21.95187 -30.14747,25.14633 l -4.58818,1.16667 -0.29772,6.18844 -0.29771,6.18844 -9.20229,0.0765 c -5.06125,0.0421 -9.9591,0.22276 -10.8841,0.40151 -0.92501,0.17875 -1.93751,0.0693 -2.25,-0.24318 z M 923.5,595.49331 c -0.55,-0.19183 -5.35566,-0.64591 -10.67924,-1.00907 -5.32359,-0.36315 -10.413,-1.19681 -11.3098,-1.85257 C 899.15778,590.91099 882,542.37821 882,537.44266 c 0,-4.37662 -1.49945,-2.5792 -3.17618,3.80734 -1.89669,7.22437 -15.78325,46.84974 -16.84478,48.06667 -1.065,1.22091 -29.97904,-0.38514 -29.97904,-1.6652 0,-0.58247 6.97802,-19.66628 15.5067,-42.40847 11.64538,-31.05301 15.27293,-41.78625 14.56787,-43.10366 -0.51635,-0.96482 -4.36706,-10.95337 -8.55713,-22.19678 -4.19007,-11.24341 -8.49427,-22.54786 -9.56489,-25.12101 C 840.40807,446.30269 833,425.67695 833,424.32717 833,423.28335 836.19759,423 847.97695,423 c 14.43751,0 15.02891,0.081 16.41966,2.25 2.18777,3.41195 15.60339,43.79841 15.60339,46.97253 0,1.52761 0.45,2.77747 1,2.77747 0.55,0 0.98428,-0.5625 0.96507,-1.25 -0.0192,-0.6875 3.68766,-12.3875 8.23751,-26 L 898.47502,423 h 15.82988 15.82988 l -0.68312,2.25 c -0.37572,1.2375 -3.37088,9.225 -6.65591,17.75 -6.42888,16.68365 -19.79659,52.28091 -21.78051,58 -1.15653,3.33392 -0.516,5.42179 13.49847,44 8.09193,22.275 15.56169,42.65416 16.59945,45.28702 1.03776,2.63286 1.88684,4.99536 1.88684,5.25 0,0.52579 -7.97239,0.48911 -9.5,-0.0437 z M 212.13568,539.294 c 0.0746,-28.4867 0.41213,-66.194 0.75,-83.794 l 0.61432,-32 19,-0.30206 c 20.40739,-0.32442 34.18118,0.79262 41.80518,3.39038 11.81229,4.02485 20.76958,17.37392 22.83899,34.03701 1.27222,10.24398 0.51614,28.55782 -1.48105,35.87467 -3.1998,11.72261 -10.38004,21.71665 -18.68961,26.0137 -4.92894,2.54885 -15.65913,4.44996 -25.22351,4.46894 L 243,527 v 30.37756 c 0,23.10762 -0.29915,30.61437 -1.25,31.36709 -0.6875,0.54424 -7.6625,1.29414 -15.5,1.66644 L 212,591.08801 Z m 47.65446,-41.68548 c 5.28177,-2.73131 6.69207,-7.40893 6.66569,-22.10852 -0.0271,-15.0933 -1.29616,-19.33183 -6.61111,-22.0803 -3.86694,-1.99967 -16.36223,-3.0094 -17.35537,-1.40247 -0.36333,0.58788 -0.33242,11.68435 0.0687,24.65881 l 0.72929,23.58995 6.78132,-0.56853 c 3.72973,-0.31268 8.1044,-1.25271 9.72149,-2.08894 z m 553.10099,89.94928 c -0.24321,-0.24321 -5.44746,-0.52187 -11.565,-0.61924 -6.11755,-0.0974 -12.29356,-0.40084 -13.72447,-0.67438 L 785,585.76685 l 0.0153,-80.13343 c 0.008,-44.07338 0.38089,-80.70952 0.8277,-81.41365 0.60929,-0.96017 4.16789,-1.21017 14.23469,-1 L 813.5,423.5 l 0.64077,38 c 1.62944,96.63125 1.73466,126.5 0.44564,126.5 -0.68919,0 -1.45207,-0.19899 -1.69528,-0.4422 z M 311.19558,524.4059 c 0.16743,-34.04824 0.4354,-70.79953 0.59548,-81.66951 l 0.29105,-19.76361 32.70895,0.26361 L 377.5,423.5 l 0.2778,14.30657 0.2778,14.30657 -18.7778,-0.18373 -18.7778,-0.18373 -0.31887,10.37716 c -0.17538,5.70744 -0.0209,14.53966 0.34332,19.62716 l 0.6622,9.25 h 16.4357 16.4357 l -0.27902,13.25 -0.27903,13.25 -16.25,0.27477 -16.25,0.27477 v 19.62707 19.62706 l 19.35878,-0.56115 19.35877,-0.56115 0.63523,8.15931 c 0.34938,4.48763 0.63793,10.67497 0.64123,13.74964 l 0.006,5.59033 -23.75,0.64836 c -13.0625,0.35659 -28.83699,0.9486 -35.05442,1.31557 l -11.30442,0.66722 z M 744.5,584.86373 c -11.55,-0.45535 -26.0625,-1.10537 -32.25,-1.44447 L 701,582.8027 v -70.24772 c 0,-38.63625 -0.29238,-74.36686 -0.64974,-79.40136 L 699.70051,424 h 14.54276 c 11.6578,0 14.65113,0.28242 15.08906,1.42366 0.30047,0.78301 0.63347,13.72051 0.74,28.75 0.10653,15.02949 0.47134,44.20134 0.81068,64.82634 l 0.61699,37.5 11.5,0.61844 c 6.325,0.34014 14.5375,0.67764 18.25,0.75 L 768,558 v 14 c 0,10.61556 -0.30218,13.96273 -1.25,13.84582 -0.6875,-0.0848 -10.7,-0.52673 -22.25,-0.98209 z M 397,503.13494 V 423 h 14.86315 14.86316 l 3.28731,9.25 c 6.06671,17.07081 29.02149,78.11844 29.58586,78.68281 0.30698,0.30698 0.41018,-3.93982 0.22933,-9.43733 C 459.64796,495.99796 459.6125,476.0875 459.75,457.25 L 460,423 h 13.94387 13.94387 l 0.30613,21.25 C 488.36224,455.9375 488.5,491.375 488.5,523 v 57.5 l -14.1055,0.27658 c -10.51829,0.20623 -14.3634,-0.0481 -15.11962,-1 -1.17494,-1.47901 -24.56604,-61.76125 -30.56739,-78.77658 -2.23085,-6.325 -4.20265,-11.6875 -4.38179,-11.91667 -0.97232,-1.24387 -1.09502,0.96569 -0.24683,4.44474 0.83204,3.41279 1.50189,87.23717 0.70335,88.01612 -0.15522,0.15141 -6.46972,0.60164 -14.03222,1.0005 L 397,583.26989 Z M 508.51331,580.8885 C 508.22169,580.12483 508.09939,544.4 508.24154,501.5 l 0.25846,-78 20.5,-0.29275 c 31.98349,-0.45674 41.55345,1.618 51.83849,11.23844 8.63359,8.07572 13.11896,19.93525 15.22994,40.26873 1.63627,15.76092 0.6585,62.35333 -1.50647,71.78558 -4.17567,18.19244 -14.37795,28.96364 -31.47917,33.23457 -8.33317,2.08117 -53.84788,3.04362 -54.56948,1.15393 z m 47.55275,-27.49507 c 4.10981,-2.40026 7.45039,-8.87421 8.97506,-17.39343 1.88149,-10.51299 1.4633,-59.88742 -0.58345,-68.88632 -2.75045,-12.09278 -8.7374,-16.50002 -21.70767,-15.97989 l -4.75,0.19048 v 52.46937 52.46937 l 7.38817,-0.47414 c 4.75461,-0.30513 8.56081,-1.159 10.67789,-2.39544 z m 57.62624,27.96554 C 612.81692,580.48358 612.80321,524.82422 613.6642,467.25 L 614.32592,423 h 34.20659 34.20659 l 0.49516,13.75 c 0.27234,7.5625 0.28785,14.11443 0.0345,14.55983 -0.25339,0.44541 -9.30501,0.72042 -20.11472,0.61113 l -19.654,-0.19871 -0.30586,14.88888 c -0.16822,8.18888 -0.0247,17.24037 0.3189,20.11443 l 0.62477,5.22556 16.18109,0.27444 L 676.5,492.5 v 12.5 12.5 l -16.5,0.5 -16.5,0.5 v 31.5 31.5 l -14.5577,0.27563 c -8.00674,0.1516 -14.86924,-0.0359 -15.25,-0.41666 z"
       id="path1" />
  </g>
</svg>
